REM DIRINDEX 1\4,1\2\5,1\2\6,1\3\7,1\3\8
REM DIRNAME cjc124,folder01,folder02,folder03,folder04,folder05,folder06,folder07
TITLE ""
FILE "107_Day54_Check2_Phrases.mp3" MP3
  TRACK 01 AUDIO
    TITLE "0:"
    INDEX 01 00:00:00
  TRACK 02 AUDIO
    TITLE "4:cjc124_3501"
    INDEX 01 00:00:33
  TRACK 03 AUDIO
    TITLE "0:"
    INDEX 01 00:01:56
  TRACK 04 AUDIO
    TITLE "5:cjc124_3502"
    INDEX 01 00:02:20
  TRACK 05 AUDIO
    TITLE "0:"
    INDEX 01 00:03:66
  TRACK 06 AUDIO
    TITLE "6:cjc124_3503"
    INDEX 01 00:04:09
  TRACK 07 AUDIO
    TITLE "0:"
    INDEX 01 00:05:26
  TRACK 08 AUDIO
    TITLE "5:cjc124_3504"
    INDEX 01 00:05:65
  TRACK 09 AUDIO
    TITLE "0:"
    INDEX 01 00:08:05
  TRACK 10 AUDIO
    TITLE "6:cjc124_3505"
    INDEX 01 00:08:24
  TRACK 11 AUDIO
    TITLE "0:"
    INDEX 01 00:10:08
  TRACK 12 AUDIO
    TITLE "5:cjc124_3506"
    INDEX 01 00:10:47
  TRACK 13 AUDIO
    TITLE "0:"
    INDEX 01 00:12:14
  TRACK 14 AUDIO
    TITLE "6:cjc124_3507"
    INDEX 01 00:12:36
  TRACK 15 AUDIO
    TITLE "0:"
    INDEX 01 00:14:27
  TRACK 16 AUDIO
    TITLE "5:cjc124_3508"
    INDEX 01 00:14:66
  TRACK 17 AUDIO
    TITLE "0:"
    INDEX 01 00:16:26
  TRACK 18 AUDIO
    TITLE "6:cjc124_3509"
    INDEX 01 00:16:44
  TRACK 19 AUDIO
    TITLE "0:"
    INDEX 01 00:17:70
  TRACK 20 AUDIO
    TITLE "5:cjc124_3510"
    INDEX 01 00:18:33
  TRACK 21 AUDIO
    TITLE "0:"
    INDEX 01 00:20:26
  TRACK 22 AUDIO
    TITLE "6:cjc124_3511"
    INDEX 01 00:20:53
  TRACK 23 AUDIO
    TITLE "0:"
    INDEX 01 00:22:50
  TRACK 24 AUDIO
    TITLE "5:cjc124_3512"
    INDEX 01 00:23:14
  TRACK 25 AUDIO
    TITLE "0:"
    INDEX 01 00:24:72
  TRACK 26 AUDIO
    TITLE "6:cjc124_3513"
    INDEX 01 00:25:13
  TRACK 27 AUDIO
    TITLE "0:"
    INDEX 01 00:26:48
  TRACK 28 AUDIO
    TITLE "5:cjc124_3514"
    INDEX 01 00:27:10
  TRACK 29 AUDIO
    TITLE "0:"
    INDEX 01 00:28:68
  TRACK 30 AUDIO
    TITLE "6:cjc124_3515"
    INDEX 01 00:29:19
  TRACK 31 AUDIO
    TITLE "0:"
    INDEX 01 00:31:14
  TRACK 32 AUDIO
    TITLE "5:cjc124_3516"
    INDEX 01 00:31:57
  TRACK 33 AUDIO
    TITLE "0:"
    INDEX 01 00:33:44
  TRACK 34 AUDIO
    TITLE "6:cjc124_3517"
    INDEX 01 00:33:58
  TRACK 35 AUDIO
    TITLE "0:"
    INDEX 01 00:35:53
  TRACK 36 AUDIO
    TITLE "5:cjc124_3518"
    INDEX 01 00:36:21
  TRACK 37 AUDIO
    TITLE "0:"
    INDEX 01 00:38:06
  TRACK 38 AUDIO
    TITLE "6:cjc124_3519"
    INDEX 01 00:38:18
  TRACK 39 AUDIO
    TITLE "0:"
    INDEX 01 00:40:05
  TRACK 40 AUDIO
    TITLE "5:cjc124_3520"
    INDEX 01 00:40:44
  TRACK 41 AUDIO
    TITLE "0:"
    INDEX 01 00:43:05
  TRACK 42 AUDIO
    TITLE "6:cjc124_3521"
    INDEX 01 00:43:23
  TRACK 43 AUDIO
    TITLE "0:"
    INDEX 01 00:45:69
  TRACK 44 AUDIO
    TITLE "5:cjc124_3522"
    INDEX 01 00:46:31
  TRACK 45 AUDIO
    TITLE "0:"
    INDEX 01 00:47:74
  TRACK 46 AUDIO
    TITLE "6:cjc124_3523"
    INDEX 01 00:48:18
  TRACK 47 AUDIO
    TITLE "0:"
    INDEX 01 00:49:51
  TRACK 48 AUDIO
    TITLE "5:cjc124_3524"
    INDEX 01 00:50:13
  TRACK 49 AUDIO
    TITLE "0:"
    INDEX 01 00:52:26
  TRACK 50 AUDIO
    TITLE "6:cjc124_3525"
    INDEX 01 00:52:57
  TRACK 51 AUDIO
    TITLE "0:"
    INDEX 01 00:54:23
  TRACK 52 AUDIO
    TITLE "5:cjc124_3526"
    INDEX 01 00:54:62
  TRACK 53 AUDIO
    TITLE "0:"
    INDEX 01 00:56:29
  TRACK 54 AUDIO
    TITLE "6:cjc124_3527"
    INDEX 01 00:56:45
  TRACK 55 AUDIO
    TITLE "0:"
    INDEX 01 00:58:20
  TRACK 56 AUDIO
    TITLE "5:cjc124_3528"
    INDEX 01 00:58:64
  TRACK 57 AUDIO
    TITLE "0:"
    INDEX 01 01:00:13
  TRACK 58 AUDIO
    TITLE "6:cjc124_3529"
    INDEX 01 01:00:35
  TRACK 59 AUDIO
    TITLE "0:"
    INDEX 01 01:02:06
  TRACK 60 AUDIO
    TITLE "5:cjc124_3530"
    INDEX 01 01:02:44
  TRACK 61 AUDIO
    TITLE "0:"
    INDEX 01 01:04:29
  TRACK 62 AUDIO
    TITLE "6:cjc124_3531"
    INDEX 01 01:04:43
  TRACK 63 AUDIO
    TITLE "0:"
    INDEX 01 01:06:02
  TRACK 64 AUDIO
    TITLE "5:cjc124_3532"
    INDEX 01 01:06:42
  TRACK 65 AUDIO
    TITLE "0:"
    INDEX 01 01:08:17
  TRACK 66 AUDIO
    TITLE "6:cjc124_3533"
    INDEX 01 01:08:33
  TRACK 67 AUDIO
    TITLE "0:"
    INDEX 01 01:10:18
